<?xml version="1.0" encoding="UTF-8"?>
<svg version="1.1" xmlns="http://www.w3.org/2000/svg" width="24" height="32">
<path d="M0 0 C2.6411319 1.6680833 3.69344031 2.94501184 4.56640625 5.94921875 C5.43828199 11.20800609 4.65590023 15.13904785 2.69140625 20.0546875 C1.83255116 22.12703895 1.83255116 22.12703895 2 25 C3.65 25 5.3 25 7 25 C7 25.99 7 26.98 7 28 C-0.92 28 -8.84 28 -17 28 C-17 27.34 -17 26.68 -17 26 C-15.35 25.34 -13.7 24.68 -12 24 C-12.52639834 19.15514518 -12.52639834 19.15514518 -14.1875 14.625 C-15.43179354 10.60497471 -14.49182241 6.88601544 -13 3 C-9.27652939 -1.56829168 -5.4766183 -1.2490533 0 0 Z " fill="#3C3F43" transform="translate(17,4)"/>
<path d="M0 0 C2.65819502 1.67886001 3.68983892 2.97687124 4.6015625 5.984375 C5.66209058 12.01482878 4.23083353 15.91109054 1 21 C-0.43088528 18.13822943 0.40008303 16.06624227 1 13 C-1.475 12.505 -1.475 12.505 -4 12 C-4 11.34 -4 10.68 -4 10 C-2.35 10 -0.7 10 1 10 C1 8.35 1 6.7 1 5 C0.34 5 -0.32 5 -1 5 C-1 3.68 -1 2.36 -1 1 C-4.46485707 1.62032476 -4.46485707 1.62032476 -8 3 C-10.10121479 6.77141116 -10.21856847 10.05513442 -10.125 14.3125 C-10.10695313 15.38113281 -10.08890625 16.44976563 -10.0703125 17.55078125 C-10.04710937 18.35902344 -10.02390625 19.16726562 -10 20 C-8.68 20.66 -7.36 21.32 -6 22 C-6.66 22.33 -7.32 22.66 -8 23 C-8.65555119 25.52733235 -8.65555119 25.52733235 -9 28 C-11.64 28 -14.28 28 -17 28 C-17 27.34 -17 26.68 -17 26 C-15.35 25.34 -13.7 24.68 -12 24 C-12.52639834 19.15514518 -12.52639834 19.15514518 -14.1875 14.625 C-15.43179354 10.60497471 -14.49182241 6.88601544 -13 3 C-9.27652939 -1.56829168 -5.4766183 -1.2490533 0 0 Z " fill="#287A9B" transform="translate(17,4)"/>
<path d="M0 0 C2 0 2 0 3.5625 1 C5.80812461 4.12434729 5.68834566 7.19781708 6 11 C7.65 11 9.3 11 11 11 C11 11.99 11 12.98 11 14 C5.72 14 0.44 14 -5 14 C-4.67 12.35 -4.34 10.7 -4 9 C-2.68 8.67 -1.36 8.34 0 8 C-0.37125 7.4225 -0.7425 6.845 -1.125 6.25 C-2 4 -2 4 -1.125 1.75 C-0.75375 1.1725 -0.3825 0.595 0 0 Z " fill="#505961" transform="translate(13,18)"/>
<path d="M0 0 C3.39456234 -0.30859658 5.37710559 -0.38720463 8.3125 1.4375 C10.7716235 5.17172458 11.3408501 8.5544445 11 13 C9.97574888 15.88219501 8.63712137 18.42135819 7 21 C5.56911472 18.13822943 6.40008303 16.06624227 7 13 C5.35 12.67 3.7 12.34 2 12 C2 11.34 2 10.68 2 10 C3.65 10 5.3 10 7 10 C7 8.35 7 6.7 7 5 C6.34 5 5.68 5 5 5 C5 3.68 5 2.36 5 1 C3.35 1 1.7 1 0 1 C0 0.67 0 0.34 0 0 Z " fill="#595F64" transform="translate(11,4)"/>
<path d="M0 0 C2.97 0 5.94 0 9 0 C9 0.99 9 1.98 9 3 C10.32 3 11.64 3 13 3 C13 3.66 13 4.32 13 5 C8.38 5 3.76 5 -1 5 C-0.67 3.35 -0.34 1.7 0 0 Z " fill="#212428" transform="translate(9,27)"/>
<path d="M0 0 C0.99 0.33 1.98 0.66 3 1 C3 1.99 3 2.98 3 4 C4.32 4.66 5.64 5.32 7 6 C6.01 6.495 6.01 6.495 5 7 C4.34444881 9.52733235 4.34444881 9.52733235 4 12 C1.36 12 -1.28 12 -4 12 C-4 11.34 -4 10.68 -4 10 C-2.35 9.34 -0.7 8.68 1 8 C0.67 5.36 0.34 2.72 0 0 Z " fill="#2B7D9D" transform="translate(4,20)"/>
<path d="M0 0 C1.32 0 2.64 0 4 0 C3.67 1.98 3.34 3.96 3 6 C2.34 6 1.68 6 1 6 C1 8.31 1 10.62 1 13 C-0.515625 11.7890625 -0.515625 11.7890625 -2 10 C-2.109375 7.7734375 -2.109375 7.7734375 -1.75 5.375 C-1.58757813 4.18003906 -1.58757813 4.18003906 -1.421875 2.9609375 C-1 1 -1 1 0 0 Z " fill="#10202A" transform="translate(9,8)"/>
<path d="M0 0 C0.33 0 0.66 0 1 0 C1.10957031 0.56589844 1.21914062 1.13179687 1.33203125 1.71484375 C1.49058594 2.44832031 1.64914063 3.18179687 1.8125 3.9375 C1.96332031 4.66839844 2.11414063 5.39929688 2.26953125 6.15234375 C2.51058594 6.76207031 2.75164063 7.37179688 3 8 C3.99 8.33 4.98 8.66 6 9 C6.33 10.65 6.66 12.3 7 14 C4.83125748 13.49396008 3.00032373 13.00016187 1 12 C0.03929566 9.11788698 -0.10581883 7.30149956 -0.0625 4.3125 C-0.05347656 3.50425781 -0.04445313 2.69601563 -0.03515625 1.86328125 C-0.02355469 1.24839844 -0.01195312 0.63351562 0 0 Z " fill="#144052" transform="translate(6,12)"/>
<path d="M0 0 C0.99 0 1.98 0 3 0 C3.33 0.66 3.66 1.32 4 2 C6.02463255 2.65213292 6.02463255 2.65213292 8 3 C7.67 4.65 7.34 6.3 7 8 C6.34 6.68 5.68 5.36 5 4 C3.68 4.99 2.36 5.98 1 7 C0 6 0 6 -0.0625 2.9375 C-0.041875 1.968125 -0.02125 0.99875 0 0 Z " fill="#354954" transform="translate(10,14)"/>
<path d="M0 0 C0.33 0 0.66 0 1 0 C2.46751243 6.89092794 1.78003299 11.04604246 -2 17 C-3.59190467 13.81619067 -2.28749598 10.71923676 -1.5625 7.375 C-1.41490234 6.66859375 -1.26730469 5.9621875 -1.11523438 5.234375 C-0.74950507 3.48831251 -0.37552879 1.74398116 0 0 Z " fill="#9FABB3" transform="translate(20,8)"/>
<path d="M0 0 C0.94875 0.04125 1.8975 0.0825 2.875 0.125 C2.215 1.445 1.555 2.765 0.875 4.125 C-0.300625 4.0321875 -0.300625 4.0321875 -1.5 3.9375 C-2.799375 4.0303125 -2.799375 4.0303125 -4.125 4.125 C-4.785 5.115 -5.445 6.105 -6.125 7.125 C-5.03177966 0.20127119 -5.03177966 0.20127119 0 0 Z " fill="#294553" transform="translate(13.125,4.875)"/>
<path d="M0 0 C-0.556875 0.268125 -1.11375 0.53625 -1.6875 0.8125 C-2.8321875 1.4003125 -2.8321875 1.4003125 -4 2 C-4.886875 2.433125 -5.77375 2.86625 -6.6875 3.3125 C-9.23992223 4.81912683 -9.23992223 4.81912683 -9.8125 7.6875 C-9.9053125 8.8321875 -9.9053125 8.8321875 -10 10 C-10.66 10 -11.32 10 -12 10 C-11.39053254 4.5147929 -11.39053254 4.5147929 -9.625 2.1875 C-6.51490853 -0.08525915 -3.70874812 -0.10023644 0 0 Z " fill="#4B97B7" transform="translate(15,3)"/>
<path d="M0 0 C1.98 0.66 3.96 1.32 6 2 C4.68 2.33 3.36 2.66 2 3 C2 3.66 2 4.32 2 5 C1.01 5 0.02 5 -1 5 C-0.67 3.35 -0.34 1.7 0 0 Z " fill="#0C1F29" transform="translate(9,27)"/>
</svg>
